<svg width="20" height="20" viewBox="0 0 20 20" fill="none" xmlns="http://www.w3.org/2000/svg">
<circle cx="9.99975" cy="9.70874" r="9.70874" fill="#151875"/>
<path d="M14.2457 7.40715C14.2404 7.01499 14.167 6.62671 14.0287 6.25971C13.9088 5.95015 13.7256 5.669 13.4908 5.43425C13.2561 5.1995 12.9749 5.01629 12.6653 4.89635C12.3031 4.76035 11.9203 4.68681 11.5334 4.67887C11.0353 4.6566 10.8774 4.65039 9.61292 4.65039C8.34845 4.65039 8.18638 4.65039 7.69188 4.67887C7.30517 4.68687 6.92261 4.76041 6.56049 4.89635C6.25088 5.01621 5.96969 5.19938 5.73493 5.43415C5.50017 5.66891 5.31699 5.9501 5.19713 6.25971C5.06086 6.62172 4.98748 7.00436 4.98017 7.3911C4.9579 7.88974 4.95117 8.04767 4.95117 9.31214C4.95117 10.5766 4.95117 10.7382 4.98017 11.2332C4.98794 11.6205 5.06095 12.0026 5.19713 12.3656C5.31719 12.6751 5.5005 12.9562 5.73535 13.1909C5.97019 13.4255 6.2514 13.6086 6.56101 13.7284C6.92214 13.8699 7.30476 13.9487 7.6924 13.9615C8.19104 13.9837 8.34897 13.9905 9.61344 13.9905C10.8779 13.9905 11.04 13.9905 11.5345 13.9615C11.9213 13.9538 12.3041 13.8805 12.6664 13.7445C12.9759 13.6244 13.2569 13.4412 13.4917 13.2064C13.7264 12.9717 13.9097 12.6906 14.0297 12.3811C14.1659 12.0187 14.2389 11.6365 14.2467 11.2487C14.269 10.7506 14.2757 10.5927 14.2757 9.32767C14.2747 8.06321 14.2747 7.90269 14.2457 7.40715ZM9.60981 11.7033C8.28735 11.7033 7.21603 10.632 7.21603 9.30955C7.21603 7.98709 8.28735 6.91576 9.60981 6.91576C10.2447 6.91576 10.8536 7.16796 11.3025 7.61689C11.7514 8.06581 12.0036 8.67468 12.0036 9.30955C12.0036 9.94442 11.7514 10.5533 11.3025 11.0022C10.8536 11.4511 10.2447 11.7033 9.60981 11.7033ZM12.0989 7.38541C11.7897 7.38541 11.5407 7.13583 11.5407 6.82722C11.5407 6.75395 11.5551 6.6814 11.5832 6.61371C11.6112 6.54602 11.6523 6.48451 11.7041 6.4327C11.7559 6.3809 11.8174 6.3398 11.8851 6.31176C11.9528 6.28372 12.0253 6.26929 12.0986 6.26929C12.1719 6.26929 12.2444 6.28372 12.3121 6.31176C12.3798 6.3398 12.4413 6.3809 12.4931 6.4327C12.5449 6.48451 12.586 6.54602 12.6141 6.61371C12.6421 6.6814 12.6565 6.75395 12.6565 6.82722C12.6565 7.13583 12.407 7.38541 12.0989 7.38541Z" fill="white"/>
<path d="M9.60964 10.8643C10.4684 10.8643 11.1646 10.1681 11.1646 9.30935C11.1646 8.45057 10.4684 7.75439 9.60964 7.75439C8.75086 7.75439 8.05469 8.45057 8.05469 9.30935C8.05469 10.1681 8.75086 10.8643 9.60964 10.8643Z" fill="white"/>
</svg>
