<svg width="20" height="20" viewBox="0 0 20 20" fill="none" xmlns="http://www.w3.org/2000/svg">
<circle cx="10.2908" cy="9.70874" r="9.70874" fill="#151875"/>
<path d="M15.931 5.66303C15.4986 5.85461 15.0342 5.98406 14.5459 6.04257C15.0497 5.74111 15.4266 5.26664 15.6063 4.70769C15.133 4.98885 14.6149 5.18675 14.0747 5.2928C13.7114 4.9049 13.2302 4.64779 12.7058 4.5614C12.1814 4.475 11.6431 4.56415 11.1746 4.815C10.7061 5.06586 10.3335 5.46438 10.1146 5.9487C9.89579 6.43302 9.84297 6.97604 9.96438 7.49345C9.00525 7.44529 8.06697 7.196 7.21042 6.76175C6.35388 6.3275 5.59821 5.718 4.99247 4.9728C4.78535 5.33008 4.66626 5.74432 4.66626 6.18549C4.66602 6.58264 4.76383 6.9737 4.95098 7.32399C5.13814 7.67428 5.40886 7.97295 5.73914 8.19351C5.35611 8.18133 4.98153 8.07783 4.64658 7.89164V7.9227C4.64654 8.47972 4.83922 9.0196 5.19192 9.45073C5.54462 9.88186 6.03561 10.1777 6.58159 10.288C6.22627 10.3842 5.85374 10.3983 5.49215 10.3294C5.64619 10.8087 5.94625 11.2278 6.35033 11.5281C6.7544 11.8284 7.24226 11.9948 7.74561 12.004C6.89115 12.6748 5.83591 13.0386 4.74962 13.037C4.5572 13.0371 4.36494 13.0258 4.17383 13.0034C5.27647 13.7123 6.56002 14.0886 7.87092 14.0871C12.3085 14.0871 14.7343 10.4118 14.7343 7.22419C14.7343 7.12063 14.7318 7.01604 14.7271 6.91248C15.199 6.57123 15.6063 6.14867 15.9299 5.66458L15.931 5.66303Z" fill="white"/>
</svg>
